<svg xmlns="http://www.w3.org/2000/svg"
    viewBox="0 0 179.09 179.09">
    <polygon
        points="69.63 129.25 76.91 125.05 76.91 94.64 103.09 79.52 103.09 71.14 95.81 66.94 69.46 82.15 43.47 67.15 36.19 71.35 36.19 79.73 62.37 94.85 62.37 125.06 69.63 129.25"></polygon>
    <polygon
        points="136.44 41.4 69.64 2.83 69.64 2.84 69.64 2.83 2.83 41.4 2.83 58.19 69.64 19.62 136.44 58.19 136.44 41.4"></polygon>
    <polygon
        points="136.44 120.9 69.64 159.47 2.84 120.9 2.84 137.69 69.64 176.26 69.64 176.25 69.64 176.26 136.44 137.69 136.44 120.9"></polygon>
</svg>